<mxfile host="app.diagrams.net" agent="Mozilla/5.0 (X11; Linux x86_64; rv:131.0) Gecko/20100101 Firefox/131.0" version="24.8.3">
  <diagram name="Страница — 1" id="dLYdmmALkgfxqqiYyFbw">
    <mxGraphModel dx="875" dy="441" grid="1" gridSize="10" guides="1" tooltips="1" connect="1" arrows="1" fold="1" page="1" pageScale="1" pageWidth="827" pageHeight="1169" math="0" shadow="0">
      <root>
        <mxCell id="0" />
        <mxCell id="1" parent="0" />
        <mxCell id="0K2aWbolB5n0iMUz9sTw-1" value="Manažer" style="shape=umlActor;verticalLabelPosition=bottom;verticalAlign=top;html=1;outlineConnect=0;" vertex="1" parent="1">
          <mxGeometry x="510" y="180" width="30" height="60" as="geometry" />
        </mxCell>
        <mxCell id="0K2aWbolB5n0iMUz9sTw-2" value="" style="rounded=1;whiteSpace=wrap;html=1;dashed=1;" vertex="1" parent="1">
          <mxGeometry x="190" y="70" width="260" height="320" as="geometry" />
        </mxCell>
        <mxCell id="0K2aWbolB5n0iMUz9sTw-3" value="Kontrola kola při vrácení" style="text;html=1;align=center;verticalAlign=middle;resizable=0;points=[];autosize=1;strokeColor=none;fillColor=none;" vertex="1" parent="1">
          <mxGeometry x="245" y="40" width="150" height="30" as="geometry" />
        </mxCell>
        <mxCell id="0K2aWbolB5n0iMUz9sTw-4" value="Kontrola komponent kola" style="ellipse;whiteSpace=wrap;html=1;" vertex="1" parent="1">
          <mxGeometry x="250" y="90" width="140" height="60" as="geometry" />
        </mxCell>
        <mxCell id="0K2aWbolB5n0iMUz9sTw-5" value="Zaznamenání stavu kola" style="ellipse;whiteSpace=wrap;html=1;" vertex="1" parent="1">
          <mxGeometry x="255" y="180" width="140" height="60" as="geometry" />
        </mxCell>
        <mxCell id="0K2aWbolB5n0iMUz9sTw-6" value="Vytvoření požadavek na servis" style="ellipse;whiteSpace=wrap;html=1;" vertex="1" parent="1">
          <mxGeometry x="265" y="310" width="120" height="60" as="geometry" />
        </mxCell>
        <mxCell id="0K2aWbolB5n0iMUz9sTw-7" value="" style="endArrow=classic;html=1;rounded=0;exitX=0.5;exitY=1;exitDx=0;exitDy=0;entryX=0.5;entryY=0;entryDx=0;entryDy=0;dashed=1;" edge="1" parent="1" source="0K2aWbolB5n0iMUz9sTw-5" target="0K2aWbolB5n0iMUz9sTw-6">
          <mxGeometry width="50" height="50" relative="1" as="geometry">
            <mxPoint x="350" y="290" as="sourcePoint" />
            <mxPoint x="320" y="310" as="targetPoint" />
          </mxGeometry>
        </mxCell>
        <mxCell id="0K2aWbolB5n0iMUz9sTw-10" value="V případě poškození" style="edgeLabel;html=1;align=center;verticalAlign=middle;resizable=0;points=[];" vertex="1" connectable="0" parent="0K2aWbolB5n0iMUz9sTw-7">
          <mxGeometry x="0.0667" y="2" relative="1" as="geometry">
            <mxPoint as="offset" />
          </mxGeometry>
        </mxCell>
        <mxCell id="0K2aWbolB5n0iMUz9sTw-8" value="" style="endArrow=classic;html=1;rounded=0;entryX=1;entryY=0.5;entryDx=0;entryDy=0;exitX=0;exitY=0.3333333333333333;exitDx=0;exitDy=0;exitPerimeter=0;" edge="1" parent="1" source="0K2aWbolB5n0iMUz9sTw-1" target="0K2aWbolB5n0iMUz9sTw-5">
          <mxGeometry width="50" height="50" relative="1" as="geometry">
            <mxPoint x="350" y="290" as="sourcePoint" />
            <mxPoint x="400" y="240" as="targetPoint" />
          </mxGeometry>
        </mxCell>
        <mxCell id="0K2aWbolB5n0iMUz9sTw-9" value="" style="endArrow=classic;html=1;rounded=0;entryX=0.988;entryY=0.65;entryDx=0;entryDy=0;entryPerimeter=0;exitX=0;exitY=0.3333333333333333;exitDx=0;exitDy=0;exitPerimeter=0;" edge="1" parent="1" source="0K2aWbolB5n0iMUz9sTw-1" target="0K2aWbolB5n0iMUz9sTw-4">
          <mxGeometry width="50" height="50" relative="1" as="geometry">
            <mxPoint x="350" y="290" as="sourcePoint" />
            <mxPoint x="400" y="240" as="targetPoint" />
          </mxGeometry>
        </mxCell>
      </root>
    </mxGraphModel>
  </diagram>
</mxfile>
